{
  "accessors": [
    {
      "bufferView": 2,
      "componentType": 5126,
      "count": 1295,
      "max": [
        2.2097842693328857,
        2.029391288757324,
        -8.151168003678322e-06
      ],
      "min": [
        -6.712043285369873,
        -1.7936238050460815,
        -0.149837464094162
      ],
      "type": "VEC3"
    },
    {
      "bufferView": 2,
      "byteOffset": 15540,
      "componentType": 5126,
      "count": 1295,
      "max": [
        0.9977803230285645,
        0.9993655681610107,
        0.9997831583023071
      ],
      "min": [
        -0.9988974928855896,
        -0.999445378780365,
        -1.0
      ],
      "type": "VEC3"
    },
    {
      "bufferView": 3,
      "componentType": 5126,
      "count": 1295,
      "max": [
        1.0,
        0.9991776943206787,
        0.9986498951911926,
        1.0
      ],
      "min": [
        -1.0,
        -0.9999969005584717,
        -0.9985033869743347,
        -1.0
      ],
      "type": "VEC4"
    },
    {
      "bufferView": 1,
      "componentType": 5126,
      "count": 1295,
      "max": [
        0.9979999661445618,
        0.9950465559959412
      ],
      "min": [
        0.0020000000949949026,
        0.03681419417262077
      ],
      "type": "VEC2"
    },
    {
      "bufferView": 1,
      "byteOffset": 10360,
      "componentType": 5126,
      "count": 1295,
      "max": [
        0.9979999661445618,
        0.9950465559959412
      ],
      "min": [
        0.0020000000949949026,
        0.036192625761032104
      ],
      "type": "VEC2"
    },
    {
      "bufferView": 0,
      "componentType": 5125,
      "count": 5142,
      "type": "SCALAR"
    }
  ],
  "asset": {
    "extras": {
      "author": "aclund3 (https://sketchfab.com/aclund3)",
      "license": "CC-BY-4.0 (http://creativecommons.org/licenses/by/4.0/)",
      "source": "https://sketchfab.com/3d-models/free-key-download-2-of-3-da957a350433461c9924faf08ec76dea",
      "title": "Free Key Download (2 of 3)"
    },
    "generator": "Sketchfab-12.67.0",
    "version": "2.0"
  },
  "bufferViews": [
    {
      "buffer": 0,
      "byteLength": 20568,
      "name": "floatBufferViews",
      "target": 34963
    },
    {
      "buffer": 0,
      "byteLength": 20720,
      "byteOffset": 20568,
      "byteStride": 8,
      "name": "floatBufferViews",
      "target": 34962
    },
    {
      "buffer": 0,
      "byteLength": 31080,
      "byteOffset": 41288,
      "byteStride": 12,
      "name": "floatBufferViews",
      "target": 34962
    },
    {
      "buffer": 0,
      "byteLength": 20720,
      "byteOffset": 72368,
      "byteStride": 16,
      "name": "floatBufferViews",
      "target": 34962
    }
  ],
  "buffers": [
    {
      "byteLength": 93088,
      "uri": "scene.bin"
    }
  ],
  "images": [
    {
      "uri": "textures/Key_002_baseColor.png"
    },
    {
      "uri": "textures/Key_002_metallicRoughness.png"
    },
    {
      "uri": "textures/Key_002_normal.png"
    }
  ],
  "materials": [
    {
      "name": "Key_002",
      "normalTexture": {
        "index": 2
      },
      "occlusionTexture": {
        "index": 1
      },
      "pbrMetallicRoughness": {
        "baseColorTexture": {
          "index": 0
        },
        "metallicRoughnessTexture": {
          "index": 1
        }
      }
    }
  ],
  "meshes": [
    {
      "name": "Key_002_Lo_Key 002_0",
      "primitives": [
        {
          "attributes": {
            "NORMAL": 1,
            "POSITION": 0,
            "TANGENT": 2,
            "TEXCOORD_0": 3,
            "TEXCOORD_1": 4
          },
          "indices": 5,
          "material": 0,
          "mode": 4
        }
      ]
    }
  ],
  "nodes": [
    {
      "children": [
        1
      ],
      "matrix": [
        -0.9762779474258423,
        -0.005382990930229378,
        -0.21645411849021912,
        0.0,
        0.21645726263523102,
        2.1678038780207444e-16,
        -0.976292073726654,
        0.0,
        0.005255371797829866,
        -0.9999855160713196,
        0.0011651874519882366,
        0.0,
        -0.8580561876296997,
        0.1509456038475037,
        -0.09402478486299512,
        1.0
      ],
      "name": "Sketchfab_model"
    },
    {
      "children": [
        2
      ],
      "matrix": [
        1.0,
        0.0,
        0.0,
        0.0,
        0.0,
        -1.0,
        0.0,
        0.0,
        0.0,
        0.0,
        -1.0,
        0.0,
        0.0,
        0.0,
        0.0,
        1.0
      ],
      "name": "ed046604a2744226889d4f636f484e3c.fbx"
    },
    {
      "children": [
        3
      ],
      "name": "RootNode"
    },
    {
      "children": [
        4
      ],
      "matrix": [
        1.0,
        0.0,
        0.0,
        0.0,
        0.0,
        1.0,
        0.0,
        0.0,
        0.0,
        0.0,
        1.0,
        0.0,
        3.792646646499634,
        -5.555287837982178,
        -0.07500904053449631,
        1.0
      ],
      "name": "Key_002_Lo"
    },
    {
      "children": [
        5
      ],
      "matrix": [
        1.0,
        0.0,
        -0.0,
        0.0,
        0.0,
        1.0,
        0.0,
        0.0,
        0.0,
        0.0,
        1.0,
        0.0,
        -1.3690528869628906,
        -0.0995936393737793,
        0.07500904053449631,
        1.0
      ],
      "name": "Object_4"
    },
    {
      "mesh": 0,
      "name": "Key_002_Lo_Key 002_0"
    }
  ],
  "samplers": [
    {
      "magFilter": 9729,
      "minFilter": 9987,
      "wrapS": 10497,
      "wrapT": 10497
    }
  ],
  "scene": 0,
  "scenes": [
    {
      "name": "Sketchfab_Scene",
      "nodes": [
        0
      ]
    }
  ],
  "textures": [
    {
      "sampler": 0,
      "source": 0
    },
    {
      "sampler": 0,
      "source": 1
    },
    {
      "sampler": 0,
      "source": 2
    }
  ]
}
