{
  "accessors": [
    {
      "bufferView": 2,
      "componentType": 5126,
      "count": 98,
      "max": [
        149.86000061035156,
        99.75125122070313,
        99.75125122070313
      ],
      "min": [
        149.8599853515625,
        2.442859411239624,
        2.442859411239624
      ],
      "type": "VEC3"
    },
    {
      "bufferView": 2,
      "byteOffset": 1176,
      "componentType": 5126,
      "count": 98,
      "max": [
        1.0,
        3.1605452477379004e-06,
        3.1361705055132916e-07
      ],
      "min": [
        1.0,
        -1.9753406377276406e-06,
        -3.1093424013306503e-07
      ],
      "type": "VEC3"
    },
    {
      "bufferView": 1,
      "componentType": 5126,
      "count": 98,
      "max": [
        1.0000001192092896,
        1.0
      ],
      "min": [
        1.1920928955078125e-07,
        5.960464477539063e-08
      ],
      "type": "VEC2"
    },
    {
      "bufferView": 0,
      "componentType": 5125,
      "count": 144,
      "type": "SCALAR"
    },
    {
      "bufferView": 2,
      "byteOffset": 2352,
      "componentType": 5126,
      "count": 7637,
      "max": [
        152.39175415039063,
        122.96643829345703,
        101.13300323486328
      ],
      "min": [
        -0.019384050741791725,
        1.240646243095398,
        1.2119100093841553
      ],
      "type": "VEC3"
    },
    {
      "bufferView": 2,
      "byteOffset": 93996,
      "componentType": 5126,
      "count": 7637,
      "max": [
        1.0,
        1.0,
        1.0
      ],
      "min": [
        -1.0,
        -1.0,
        -1.0
      ],
      "type": "VEC3"
    },
    {
      "bufferView": 1,
      "byteOffset": 784,
      "componentType": 5126,
      "count": 7637,
      "max": [
        1.0,
        0.956795334815979
      ],
      "min": [
        3.0910637686530724e-17,
        2.4334263957880985e-17
      ],
      "type": "VEC2"
    },
    {
      "bufferView": 0,
      "byteOffset": 576,
      "componentType": 5125,
      "count": 39672,
      "type": "SCALAR"
    },
    {
      "bufferView": 2,
      "byteOffset": 185640,
      "componentType": 5126,
      "count": 201,
      "max": [
        32.58423614501953,
        1.52587890625e-05,
        32.5842399597168
      ],
      "min": [
        -32.58424758911133,
        -32.58421325683594,
        -32.584251403808594
      ],
      "type": "VEC3"
    },
    {
      "bufferView": 2,
      "byteOffset": 188052,
      "componentType": 5126,
      "count": 201,
      "max": [
        0.9969174265861511,
        -0.07845844328403473,
        0.9969174861907959
      ],
      "min": [
        -0.9969173669815063,
        -1.0,
        -0.9969174265861511
      ],
      "type": "VEC3"
    },
    {
      "bufferView": 1,
      "byteOffset": 61880,
      "componentType": 5126,
      "count": 201,
      "max": [
        1.0000001192092896,
        1.0
      ],
      "min": [
        0.0,
        -5.960464477539063e-08
      ],
      "type": "VEC2"
    },
    {
      "bufferView": 0,
      "byteOffset": 159264,
      "componentType": 5125,
      "count": 1140,
      "type": "SCALAR"
    }
  ],
  "asset": {
    "extras": {
      "author": "IUPUI University Library (https://sketchfab.com/iupuiul)",
      "license": "CC-BY-4.0 (http://creativecommons.org/licenses/by/4.0/)",
      "source": "https://sketchfab.com/3d-models/flash-light-410f25b2f1774b63a4fd596b4f19dee2",
      "title": "Flash Light"
    },
    "generator": "Sketchfab-12.68.0",
    "version": "2.0"
  },
  "bufferViews": [
    {
      "buffer": 0,
      "byteLength": 163824,
      "name": "floatBufferViews",
      "target": 34963
    },
    {
      "buffer": 0,
      "byteLength": 63488,
      "byteOffset": 163824,
      "byteStride": 8,
      "name": "floatBufferViews",
      "target": 34962
    },
    {
      "buffer": 0,
      "byteLength": 190464,
      "byteOffset": 227312,
      "byteStride": 12,
      "name": "floatBufferViews",
      "target": 34962
    }
  ],
  "buffers": [
    {
      "byteLength": 417776,
      "uri": "scene.bin"
    }
  ],
  "extensionsUsed": [
    "KHR_materials_transmission"
  ],
  "images": [
    {
      "uri": "textures/M_FlashLightOuterLense_baseColor.png"
    },
    {
      "uri": "textures/M_FlashLightBody_baseColor.png"
    }
  ],
  "materials": [
    {
      "alphaMode": "BLEND",
      "doubleSided": true,
      "extensions": {
        "KHR_materials_transmission": {
          "transmissionFactor": 0.531
        }
      },
      "name": "M_FlashLightOuterLense",
      "pbrMetallicRoughness": {
        "baseColorFactor": [
          1.0,
          1.0,
          1.0,
          0.469
        ],
        "baseColorTexture": {
          "index": 0
        },
        "metallicFactor": 0.0,
        "roughnessFactor": 0.0
      }
    },
    {
      "doubleSided": true,
      "name": "M_FlashLightBody",
      "pbrMetallicRoughness": {
        "baseColorFactor": [
          0.6685089573715672,
          0.6685089573715672,
          0.6685089573715672,
          1.0
        ],
        "baseColorTexture": {
          "index": 1
        },
        "metallicFactor": 0.038205927068536934,
        "roughnessFactor": 0.28063016949277936
      }
    },
    {
      "doubleSided": true,
      "name": "M_FlashLightInnerLense",
      "pbrMetallicRoughness": {
        "baseColorTexture": {
          "index": 0
        },
        "metallicFactor": 0.0,
        "roughnessFactor": 0.0
      }
    }
  ],
  "meshes": [
    {
      "name": "FlashLight_OuterLense_M_FlashLightOuterLense_0",
      "primitives": [
        {
          "attributes": {
            "NORMAL": 1,
            "POSITION": 0,
            "TEXCOORD_0": 2
          },
          "indices": 3,
          "material": 0,
          "mode": 4
        }
      ]
    },
    {
      "name": "FlashLight_Body_M_FlashLightBody_0",
      "primitives": [
        {
          "attributes": {
            "NORMAL": 5,
            "POSITION": 4,
            "TEXCOORD_0": 6
          },
          "indices": 7,
          "material": 1,
          "mode": 4
        }
      ]
    },
    {
      "name": "FlashLight_InnerLense_M_FlashLightInnerLense_0",
      "primitives": [
        {
          "attributes": {
            "NORMAL": 9,
            "POSITION": 8,
            "TEXCOORD_0": 10
          },
          "indices": 11,
          "material": 2,
          "mode": 4
        }
      ]
    }
  ],
  "nodes": [
    {
      "children": [
        1
      ],
      "matrix": [
        1.0,
        0.0,
        0.0,
        0.0,
        0.0,
        2.220446049250313e-16,
        -1.0,
        0.0,
        0.0,
        1.0,
        2.220446049250313e-16,
        0.0,
        0.0,
        0.0,
        0.0,
        1.0
      ],
      "name": "Sketchfab_model"
    },
    {
      "children": [
        2
      ],
      "matrix": [
        1.0,
        0.0,
        0.0,
        0.0,
        0.0,
        0.0,
        1.0,
        0.0,
        0.0,
        -1.0,
        0.0,
        0.0,
        0.0,
        0.0,
        0.0,
        1.0
      ],
      "name": "ccfa7cafc5a84cfdb30bb8dc8b514d07.fbx"
    },
    {
      "children": [
        3,
        5,
        7
      ],
      "name": "RootNode"
    },
    {
      "children": [
        4
      ],
      "name": "FlashLight_OuterLense"
    },
    {
      "mesh": 0,
      "name": "FlashLight_OuterLense_M_FlashLightOuterLense_0"
    },
    {
      "children": [
        6
      ],
      "name": "FlashLight_Body"
    },
    {
      "mesh": 1,
      "name": "FlashLight_Body_M_FlashLightBody_0"
    },
    {
      "children": [
        8
      ],
      "matrix": [
        -6.514211701186419e-16,
        -1.4668700695037842,
        0.0,
        0.0,
        0.6067447066307068,
        -2.6944877734833862e-16,
        0.0,
        0.0,
        0.0,
        0.0,
        1.4668700695037842,
        0.0,
        149.0354766845703,
        51.097068786621094,
        51.097068786621094,
        1.0
      ],
      "name": "FlashLight_InnerLense"
    },
    {
      "mesh": 2,
      "name": "FlashLight_InnerLense_M_FlashLightInnerLense_0"
    }
  ],
  "samplers": [
    {
      "magFilter": 9729,
      "minFilter": 9987,
      "wrapS": 10497,
      "wrapT": 10497
    }
  ],
  "scene": 0,
  "scenes": [
    {
      "name": "Sketchfab_Scene",
      "nodes": [
        0
      ]
    }
  ],
  "textures": [
    {
      "sampler": 0,
      "source": 0
    },
    {
      "sampler": 0,
      "source": 1
    }
  ]
}
